<svg xmlns="http://www.w3.org/2000/svg" viewBox="0 0 358 133.44"><defs><style>.cls-1{fill:#732b90;}.cls-2{fill:#f37321;}.cls-3{fill:#ed1c24;}.cls-4{fill:#005dac;}.cls-5,.cls-7{fill:#58b947;}.cls-6{fill:#fff;}.cls-7{fill-rule:evenodd;}</style></defs><title>Artboard 3</title><g id="Layer_2" data-name="Layer 2"><path class="cls-1" d="M87.59,62.88a5.56,5.56,0,1,1,3.59-7A5.58,5.58,0,0,1,87.59,62.88Z"/><path class="cls-1" d="M108.81,44.67c-3-4.15-9-11.92-15.37-12.52s-11.9,5-13.89,7.75L72,50.28a3.94,3.94,0,0,0,4.56.56c2.69-1.35,7.64-6.79,11.09-8.79s6.27.26,8.38,4.17c1.38,2.57,3.44,7,4.82,6.5-1.38.45-.46,5.21-.07,8.1.6,4.39-.35,7.88-4.32,8.28S85.28,68,82.31,68.49A3.91,3.91,0,0,0,79,71.62l12.23,4c3.23,1,11,2.33,15.8-1.87S112,59.7,112,54.58a10.6,10.6,0,0,1,1.77-6.06A10.57,10.57,0,0,1,108.81,44.67Z"/><path class="cls-1" d="M79.55,64.43a38.68,38.68,0,0,0-2.83-8.68c-.89-1.43-1.2-.74-3.52-1.38a5.92,5.92,0,0,1-3-1.69l-9.49,13,15.36,5a6,6,0,0,1,1.41-3.12C79,65.73,79.67,66.11,79.55,64.43Z"/><path class="cls-2" d="M66.33,39.39a5.58,5.58,0,1,1-5.58-5.57A5.57,5.57,0,0,1,66.33,39.39Z"/><path class="cls-2" d="M82.65,24.35C80.12,18.5,70.85,15.21,66,13.63a10.68,10.68,0,0,1-5.23-3.55,10.61,10.61,0,0,1-5.22,3.55c-4.88,1.58-14.15,4.87-16.68,10.72s1.09,12.82,3.09,15.56l7.56,10.38a3.92,3.92,0,0,0,1.95-4.16c-.46-3-4.12-9.34-5-13.23s2.2-5.87,6.57-6.66c2.88-.52,7.69-1.12,7.69-2.57,0,1.45,4.82,2,7.7,2.57C72.81,27,75.85,29,75,32.9s-4.5,10.26-5,13.23a3.92,3.92,0,0,0,2,4.16l7.56-10.38C81.56,37.17,85.19,30.19,82.65,24.35Z"/><path class="cls-2" d="M67.72,50.41c-1.33-2-.76-2.51-2.4-2.91a38.9,38.9,0,0,0-9.15,0c-1.64.4-1.07.91-2.4,2.91a6,6,0,0,1-2.53,2.3l9.5,13,9.51-13A6,6,0,0,1,67.72,50.41Z"/><path class="cls-3" d="M37.34,52.28a5.57,5.57,0,1,1-7,3.58A5.57,5.57,0,0,1,37.34,52.28Z"/><path class="cls-3" d="M41.93,39.9c-2-2.74-7.53-8.34-13.89-7.74S15.68,40.53,12.67,44.67a10.64,10.64,0,0,1-5,3.86,10.58,10.58,0,0,1,1.77,6c0,5.12.27,14.93,5.06,19.14s12.57,2.92,15.8,1.87l12.23-4a3.93,3.93,0,0,0-3.36-3.13c-3-.49-10.19,1-14.15.61s-4.92-3.9-4.33-8.29c.4-2.89,1.32-7.64-.06-8.09,1.38.45,3.44-3.94,4.82-6.51,2.11-3.9,4.94-6.17,8.38-4.17s8.4,7.44,11.09,8.8a3.93,3.93,0,0,0,4.56-.57Z"/><path class="cls-3" d="M51.25,52.68a6,6,0,0,1-3,1.7c-2.32.64-2.63-.06-3.52,1.37A34.76,34.76,0,0,0,43.09,60a34.33,34.33,0,0,0-1.16,4.42c-.12,1.68.54,1.3,2,3.18a5.91,5.91,0,0,1,1.4,3.11l15.37-5Z"/><path class="cls-4" d="M40.7,83.77a5.57,5.57,0,1,1,1.23,7.77A5.58,5.58,0,0,1,40.7,83.77Z"/><path class="cls-4" d="M60.74,84.82a3.93,3.93,0,0,0-4,2.22c-1.38,2.67-2.18,10-3.79,13.62s-5.23,3.46-9.23,1.53c-2.64-1.26-6.89-3.6-7.74-2.43.85-1.17-2.69-4.48-4.72-6.59-3.07-3.2-4.36-6.59-1.38-9.24s9.68-5.66,11.81-7.8a3.91,3.91,0,0,0,.87-4.5l-12.23,4c-3.23,1-10.28,4.56-11.68,10.78s4.16,14.31,7.19,18.45A10.55,10.55,0,0,1,28,110.75a10.62,10.62,0,0,1,6.31.19c4.88,1.59,14.32,4.36,19.82,1.12s6.67-11,6.67-14.41Z"/><path class="cls-4" d="M60.75,65.73l-15.37,5A6,6,0,0,1,46.07,74c-.1,2.39-.86,2.47.23,3.76a38.5,38.5,0,0,0,7.4,5.36c1.56.64,1.4-.11,3.66-.94a6,6,0,0,1,3.4-.38Z"/><path class="cls-5" d="M71.75,90.33a5.58,5.58,0,1,1,7.79,1.23A5.56,5.56,0,0,1,71.75,90.33Z"/><path class="cls-5" d="M102.86,86.38c-1.4-6.22-8.45-9.74-11.68-10.78L79,71.64a3.91,3.91,0,0,0,.87,4.5c2.12,2.14,8.84,5.15,11.81,7.8s1.69,6-1.38,9.24c-2,2.11-5.57,5.42-4.72,6.59-.85-1.17-5.1,1.16-7.74,2.44-4,1.92-7.63,2.09-9.24-1.55s-2.4-10.94-3.78-13.61a4,4,0,0,0-4-2.22V97.66c0,3.38,1.17,11.16,6.67,14.41s14.93.47,19.81-1.12a10.65,10.65,0,0,1,6.32-.19,10.55,10.55,0,0,1,2.13-5.93C98.69,100.69,104.25,92.59,102.86,86.38Z"/><path class="cls-5" d="M76.11,70.7l-15.37-5V81.85a6,6,0,0,1,3.4.37c2.25.84,2.09,1.59,3.66,1a35.36,35.36,0,0,0,3.86-2.46,34.14,34.14,0,0,0,3.54-2.9c1.09-1.29.33-1.37.22-3.76A6,6,0,0,1,76.11,70.7Z"/><path class="cls-6" d="M63.91,75.46a10.23,10.23,0,1,1,6.58-12.89A10.28,10.28,0,0,1,63.91,75.46Z"/><path class="cls-7" d="M105.77,102.76a5.39,5.39,0,1,1-5.39,5.39,5.39,5.39,0,0,1,5.39-5.39m0,.56a4.84,4.84,0,1,0,4.84,4.83,4.84,4.84,0,0,0-4.84-4.83m-2.63,7.76h.9v-2.74h1a3.13,3.13,0,0,1,.5,0,1.32,1.32,0,0,1,.41.17,2.06,2.06,0,0,1,.45.42c.17.19.38.48.65.85l.89,1.28h1.13l-1.18-1.67a4.77,4.77,0,0,0-.74-.84,3.67,3.67,0,0,0-.55-.3,2.66,2.66,0,0,0,1.45-.57,1.51,1.51,0,0,0,.46-1.11,1.67,1.67,0,0,0-.28-.94,1.59,1.59,0,0,0-.75-.6,5.17,5.17,0,0,0-1.38-.15h-3Zm.9-3.46H106a3.91,3.91,0,0,0,1-.1,1,1,0,0,0,.52-.38,1,1,0,0,0,.18-.55.92.92,0,0,0-.35-.73,1.76,1.76,0,0,0-1.09-.28H104Z"/><path class="cls-1" d="M160.6,123.18a16.47,16.47,0,0,1,.23-2.38h0c-1,1.87-2.29,2.56-3.65,2.56a2.36,2.36,0,0,1-2.4-2.56,5.94,5.94,0,0,1,5.86-5.86,8.61,8.61,0,0,1,2,.24l-.87,4.19a16.58,16.58,0,0,0-.38,3.81Zm1.1-7.43a3.48,3.48,0,0,0-1.25-.15,5.07,5.07,0,0,0-4.87,5.06c0,1,.32,2,1.76,2s3.33-1.93,3.8-4.18Z"/><path class="cls-1" d="M169.77,123.18l1.52-7.43h-1.18l.14-.62h1.18l.09-.44a5.22,5.22,0,0,1,1.4-2.93,2.81,2.81,0,0,1,1.81-.68,2.19,2.19,0,0,1,1.09.22l-.26.62a2.16,2.16,0,0,0-.9-.16c-1.4,0-2,1.32-2.34,3l-.07.39h2.08l-.14.62H172.1l-1.52,7.43Z"/><path class="cls-1" d="M181.18,123.18a16.47,16.47,0,0,1,.23-2.38h0c-1,1.87-2.28,2.56-3.64,2.56a2.37,2.37,0,0,1-2.41-2.56,5.94,5.94,0,0,1,5.87-5.86,8.58,8.58,0,0,1,2,.24l-.87,4.19a16.58,16.58,0,0,0-.38,3.81Zm1.1-7.43a3.44,3.44,0,0,0-1.25-.15,5.08,5.08,0,0,0-4.87,5.06c0,1,.33,2,1.76,2s3.33-1.93,3.8-4.18Z"/><path class="cls-1" d="M185.71,123.18l1.19-5.89c.19-.82.29-1.53.38-2.16h.77l-.28,1.72h0a4,4,0,0,1,3.35-1.91,2.06,2.06,0,0,1,2.17,2.25,6.88,6.88,0,0,1-.16,1.27l-1,4.72h-.81l1-4.78a6.61,6.61,0,0,0,.13-1.11,1.49,1.49,0,0,0-1.67-1.68,4.17,4.17,0,0,0-3.49,3.44l-.82,4.13Z"/><path class="cls-1" d="M199.46,113.35l-.36,1.78h2.21l-.13.62H199l-.94,4.66a6.75,6.75,0,0,0-.18,1.44.78.78,0,0,0,.87.86,2.59,2.59,0,0,0,.7-.09l.08.61a3.13,3.13,0,0,1-.94.13A1.39,1.39,0,0,1,197,121.9a6.55,6.55,0,0,1,.2-1.52l1-4.63h-1.33l.13-.62h1.34l.29-1.48Z"/><path class="cls-1" d="M208.63,123.18a16.47,16.47,0,0,1,.23-2.38h0c-1,1.87-2.29,2.56-3.65,2.56a2.36,2.36,0,0,1-2.4-2.56,5.94,5.94,0,0,1,5.86-5.86,8.61,8.61,0,0,1,2,.24l-.87,4.19a16.58,16.58,0,0,0-.38,3.81Zm1.1-7.43a3.48,3.48,0,0,0-1.25-.15,5.07,5.07,0,0,0-4.87,5.06c0,1,.32,2,1.76,2s3.33-1.93,3.8-4.18Z"/><path class="cls-1" d="M213.07,122.22a3.09,3.09,0,0,0,1.63.47,1.82,1.82,0,0,0,2-1.68c0-.77-.31-1.24-1.29-1.77a2.32,2.32,0,0,1-1.39-2,2.51,2.51,0,0,1,2.73-2.3,3,3,0,0,1,1.54.39l-.3.65a2.61,2.61,0,0,0-1.34-.38,1.66,1.66,0,0,0-1.82,1.52c0,.76.46,1.18,1.27,1.63a2.37,2.37,0,0,1,1.43,2.06,2.66,2.66,0,0,1-2.9,2.55,3.35,3.35,0,0,1-1.86-.52Z"/><path class="cls-1" d="M223.83,113.35l-.36,1.78h2.21l-.13.62h-2.23l-.94,4.66a6.75,6.75,0,0,0-.18,1.44.78.78,0,0,0,.87.86,2.59,2.59,0,0,0,.7-.09l.08.61a3.15,3.15,0,0,1-.95.13,1.39,1.39,0,0,1-1.55-1.46,6.55,6.55,0,0,1,.2-1.52l1-4.63h-1.33l.13-.62h1.34l.29-1.48Z"/><path class="cls-1" d="M227.18,123.18l1.67-8.05h.81L228,123.18Zm2.48-9.7a.62.62,0,0,1-.6-.67.68.68,0,0,1,.67-.67.63.63,0,0,1,.66.67.71.71,0,0,1-.71.67Z"/><path class="cls-1" d="M237.85,122.81a5.92,5.92,0,0,1-2.55.55,2.86,2.86,0,0,1-3.16-3,5.36,5.36,0,0,1,5.13-5.42,3.79,3.79,0,0,1,1.83.42l-.29.64a3.93,3.93,0,0,0-1.67-.37c-2.53,0-4.14,2.47-4.14,4.61a2.2,2.2,0,0,0,2.44,2.45,5,5,0,0,0,2.19-.52Z"/><path class="cls-1" d="M245.55,123.18l1.52-7.43H245.9l.14-.62h1.18l.09-.44a5.21,5.21,0,0,1,1.39-2.93,2.85,2.85,0,0,1,1.81-.68,2.16,2.16,0,0,1,1.09.22l-.25.62a2.18,2.18,0,0,0-.91-.16c-1.39,0-2,1.32-2.33,3l-.08.39h2.09l-.15.62h-2.08l-1.52,7.43Z"/><path class="cls-1" d="M259.14,115.13,257.92,121a19,19,0,0,0-.32,2.17h-.78l.27-1.66h0a4,4,0,0,1-3.11,1.84A2.13,2.13,0,0,1,251.6,121a6.94,6.94,0,0,1,.16-1.27l1-4.58h.81l-.94,4.59a5.77,5.77,0,0,0-.16,1.26,1.5,1.5,0,0,0,1.72,1.69,4,4,0,0,0,3.3-3.16l.88-4.38Z"/><path class="cls-1" d="M264.83,113.35l-.36,1.78h2.21l-.13.62h-2.23l-.94,4.66a6.75,6.75,0,0,0-.18,1.44.78.78,0,0,0,.87.86,2.59,2.59,0,0,0,.7-.09l.08.61a3.15,3.15,0,0,1-1,.13,1.39,1.39,0,0,1-1.55-1.46,6.55,6.55,0,0,1,.2-1.52l1-4.63h-1.33l.13-.62h1.34l.29-1.48Z"/><path class="cls-1" d="M276.06,115.13,274.85,121a17.2,17.2,0,0,0-.33,2.17h-.78l.27-1.66h0a4,4,0,0,1-3.12,1.84,2.13,2.13,0,0,1-2.34-2.38,6.27,6.27,0,0,1,.17-1.27l.94-4.58h.81l-.94,4.59a5.77,5.77,0,0,0-.16,1.26,1.5,1.5,0,0,0,1.72,1.69,4,4,0,0,0,3.3-3.16l.89-4.38Z"/><path class="cls-1" d="M278.58,123.18l1.12-5.44c.18-.95.33-1.84.44-2.61h.74c-.09.57-.16,1.14-.29,1.81h.06a3,3,0,0,1,2.59-2,2.23,2.23,0,0,1,.39,0l-.16.77a1.09,1.09,0,0,0-.4,0c-1.08,0-2.48,1.51-2.88,3.56l-.8,3.91Z"/><path class="cls-1" d="M290.5,122.71a5.08,5.08,0,0,1-2.63.65,2.85,2.85,0,0,1-3-3.15c0-2.4,2-5.27,4.55-5.27,1.57,0,2.24.91,2.24,1.85,0,2.16-2.82,2.6-5.89,2.55a4.27,4.27,0,0,0,.13,2,2.08,2.08,0,0,0,2.1,1.37,4.68,4.68,0,0,0,2.29-.57Zm.31-5.89c0-.8-.67-1.22-1.56-1.22-1.58,0-2.88,1.52-3.37,3.1,2.57,0,4.93-.29,4.93-1.86Z"/><path class="cls-1" d="M298.78,123.36a.7.7,0,0,1-.69-.74.74.74,0,0,1,.75-.77.7.7,0,0,1,.72.74.76.76,0,0,1-.76.77Zm.2-3.15,1.6-8.34h1l-1.9,8.34Z"/><path class="cls-1" d="M197.54,100.51a10.74,10.74,0,0,0,5.83,2.07c3.81,0,5.62-1.78,5.62-3.94s-1.6-3.5-5.06-4.71c-4-1.29-6.12-3.15-6.12-5.65,0-3,2.71-5.62,7.42-5.62a8.76,8.76,0,0,1,4.83,1.3v2.32a7.66,7.66,0,0,0-5.23-1.89c-3.06,0-4.66,1.68-4.66,3.58,0,2.16,1.7,3.12,5,4.28,3.91,1.3,6.21,3,6.21,6.14,0,3.54-3.21,6-8.12,6a11.39,11.39,0,0,1-5.68-1.46Z"/><path class="cls-1" d="M336.53,100.51a10.74,10.74,0,0,0,5.84,2.07c3.8,0,5.61-1.78,5.61-3.94s-1.6-3.5-5.06-4.71c-4-1.29-6.12-3.15-6.12-5.65,0-3,2.71-5.62,7.42-5.62a8.79,8.79,0,0,1,4.84,1.3v2.32a7.69,7.69,0,0,0-5.24-1.89c-3.06,0-4.66,1.68-4.66,3.58,0,2.16,1.7,3.12,5,4.28,3.91,1.3,6.21,3,6.21,6.14,0,3.54-3.2,6-8.11,6a11.4,11.4,0,0,1-5.69-1.46Z"/><path class="cls-1" d="M238.43,73.35h2.36v30.52h-2.36Z"/><path class="cls-1" d="M272.88,77.33v5.81h6.87v1.64h-6.87V98.25c0,2.64.95,4.33,3.51,4.33a10.06,10.06,0,0,0,2.76-.35l.3,1.6a9.67,9.67,0,0,1-3.36.51,5.39,5.39,0,0,1-4.11-1.51c-1.1-1.08-1.5-2.8-1.5-4.92V84.78h-4.06V83.14h4.06V77.33Z"/><path class="cls-1" d="M283.54,103.87V83.14h2.36v20.73Z"/><path class="cls-1" d="M286.83,77.36a2,2,0,1,1-2-2A2,2,0,0,1,286.83,77.36Z"/><path class="cls-1" d="M260.84,83.14v12.3c0,4.31-2.81,6.83-7.15,7.07-4.35-.24-7.16-2.76-7.16-7.07V83.14h-2.35v12c0,7.86,6.38,9.15,9.44,9.15h.14c3.05,0,9.44-1.29,9.44-9.15v-12Z"/><path class="cls-1" d="M331.15,103.87V91.57c0-4.32-2.8-6.84-7.15-7.07-4.35.23-7.16,2.75-7.16,7.07v12.3h-2.35V91.82c0-7.86,6.38-9.16,9.44-9.16h.14c3.06,0,9.44,1.3,9.44,9.16v12.05Z"/><path class="cls-1" d="M225.17,82.66A10.81,10.81,0,1,0,236,93.47,10.81,10.81,0,0,0,225.17,82.66Zm0,19.46a8.65,8.65,0,1,1,8.65-8.65A8.65,8.65,0,0,1,225.17,102.12Z"/><path class="cls-1" d="M300.66,82.66a10.81,10.81,0,1,0,10.81,10.81A10.81,10.81,0,0,0,300.66,82.66Zm0,19.46a8.65,8.65,0,1,1,8.64-8.65A8.65,8.65,0,0,1,300.66,102.12Z"/><path class="cls-1" d="M242.32,38.3V33.76h-1.69v-.61h4.08v.61H243V38.3Z"/><path class="cls-1" d="M245.39,38.3V33.15h1l1.22,3.65c.11.34.19.59.24.76.06-.18.15-.46.28-.82l1.23-3.59h.92V38.3h-.66V34l-1.5,4.31h-.61l-1.49-4.38V38.3Z"/><path class="cls-1" d="M131.5,40.75H120.08V32.12h35.06v8.63H143.52v30h-12Z"/><polygon class="cls-1" points="183.33 69.14 195.35 65.89 195.35 32.13 183.32 32.13 183.32 47.13 168.85 47.13 168.85 32.13 156.84 32.13 156.84 70.74 168.85 70.74 168.85 55.75 183.32 55.75 183.33 69.14"/><path class="cls-1" d="M233.49,35.65c-4.45-2.64-8.94-3.53-16-3.53H199.8V64.68l12-3.25V39.83h5.64c7.17,0,10.36,3.44,10.36,10.94v1.32c0,7.51-3.19,10.95-10.36,10.95h-2.73l-12.06,7.7h14.79c7.09,0,11.58-.88,16-3.52,4.91-2.92,7.08-7.73,7.08-14.84V50.49C240.57,43.38,238.4,38.57,233.49,35.65Z"/><polygon class="cls-2" points="211.83 63.04 199.8 70.74 183.33 70.74 211.83 63.04"/><path class="cls-2" d="M184.92,83.14v12.3c0,4.31-2.8,6.83-7.15,7.07-4.35-.24-7.15-2.76-7.15-7.07V83.14h-2.36v12c0,7.86,6.38,9.15,9.44,9.15h.14c3.06,0,9.44-1.29,9.44-9.15v-12Z"/><path class="cls-2" d="M163.43,73.35h2.36v30.52h-2.36Z"/><path class="cls-2" d="M155,82.66a10.81,10.81,0,1,0,10.81,10.81A10.81,10.81,0,0,0,155,82.66Zm0,19.46a8.65,8.65,0,1,1,8.64-8.65A8.66,8.66,0,0,1,155,102.12Z"/><path class="cls-2" d="M130.89,82.66A10.81,10.81,0,1,0,141.09,97h-2.32a8.63,8.63,0,0,1-16.44-2.35h19.3a11.5,11.5,0,0,0,.07-1.18A10.81,10.81,0,0,0,130.89,82.66Zm-8.56,9.63a8.64,8.64,0,0,1,17.11,0Z"/></g></svg>